<svg width="500" height="150" viewBox="-40 -20 1480 490" xmlns="http://www.w3.org/2000/svg">
  <title>Clovix Analytics</title>
  <line x1="225" y1="225" x2="225" y2="45" stroke="#E8873B" stroke-width="28" stroke-linecap="round"/>
  <line x1="225" y1="225" x2="381" y2="135" stroke="#E8873B" stroke-width="28" stroke-linecap="round"/>
  <line x1="225" y1="225" x2="381" y2="315" stroke="#E8873B" stroke-width="28" stroke-linecap="round"/>
  <line x1="225" y1="225" x2="225" y2="405" stroke="#E8873B" stroke-width="28" stroke-linecap="round"/>
  <line x1="225" y1="225" x2="69" y2="315" stroke="#E8873B" stroke-width="28" stroke-linecap="round"/>
  <line x1="225" y1="225" x2="69" y2="135" stroke="#E8873B" stroke-width="28" stroke-linecap="round"/>
  <circle cx="225" cy="17" r="30" fill="#C45228"/>
  <circle cx="397" cy="123" r="26" fill="#E8873B"/>
  <circle cx="397" cy="327" r="26" fill="#E8873B"/>
  <circle cx="225" cy="433" r="30" fill="#C45228"/>
  <circle cx="53" cy="327" r="26" fill="#E8873B"/>
  <circle cx="53" cy="123" r="26" fill="#E8873B"/>
  <circle cx="225" cy="225" r="80" fill="#E8873B" fill-opacity="0.08"/>
  <circle cx="225" cy="225" r="64" fill="#E8873B" fill-opacity="0.12"/>
  <circle cx="225" cy="225" r="52" fill="white" stroke="#E8873B" stroke-width="18"/>
  <circle cx="225" cy="225" r="24" fill="#E8873B"/>
  <text x="470" y="175" font-family="sans-serif" font-size="150" font-weight="700" fill="#1A1A2E">Clovix</text>
  <text x="470" y="335" font-family="sans-serif" font-size="115" font-weight="400" fill="#E8873B">Analytics</text>
</svg>
